<svg xmlns="http://www.w3.org/2000/svg" width="44" height="44" fill="none"><path fill="#fff" d="M24.079 0h2.789v5.671h-2.79V0zm7.437 0h2.79v5.671h-2.79V0zM16.641 0h2.79v5.671h-2.79V0zM9.204 0h2.789v5.671h-2.79V0zM0 16.641h5.671v2.79H0v-2.79zm0-7.437h5.671v2.789H0v-2.79zm0 14.875h5.671v2.789H0v-2.79zm0 7.437h5.671v2.79H0v-2.79zm16.641 6.324h2.79v5.67h-2.79v-5.67zm-7.437 0h2.789v5.67h-2.79v-5.67zm14.875 0h2.789v5.67h-2.79v-5.67zm7.437 0h2.79v5.67h-2.79v-5.67zm6.324-13.761h5.67v2.789h-5.67v-2.79zm0 7.437h5.67v2.79h-5.67v-2.79zm0-14.875h5.67v2.79h-5.67v-2.79zm0-7.437h5.67v2.789h-5.67v-2.79zM12.874 30.702h17.76V12.808h-17.76v17.894zm14.365-4.129H25.2v-6.54h2.038v6.54zm-1.02-9.637c.65 0 1.141.494 1.145 1.149.009.307-.1.592-.306.805a1.184 1.184 0 0 1-.863.347 1.126 1.126 0 0 1-1.132-1.144c0-.649.508-1.157 1.157-1.157zm-7.445.246h1.985l3.205 9.391H21.81l-.903-2.66h-2.328l-.878 2.66h-2.118l3.19-9.391z"/><path fill="#fff" d="m19.745 20.309-.005-.017-.621 1.834h1.245l-.619-1.817z"/><path fill="#fff" d="M5.683 5.578v32.353h32.144V5.578H5.682zM33.44 32.104c0 .775-.628 1.403-1.403 1.403H11.472a1.403 1.403 0 0 1-1.403-1.403V11.405c0-.774.628-1.402 1.403-1.402h20.565c.775 0 1.403.628 1.403 1.402v20.699z"/></svg>