<svg xmlns="http://www.w3.org/2000/svg" width="61" height="59" fill="none"><path fill="#FFCF23" d="M60.228 21.72H20.055l40.081-9.257-2.045-8.871c-.573-2.486-3.026-4.042-5.48-3.476L3.535 11.451c-2.085.482-3.5 2.343-3.527 4.421H0l.011 38.505A4.62 4.62 0 0 0 4.627 59h51.015a4.62 4.62 0 0 0 4.616-4.623l-.03-32.657zM47.355 4.923l7.937 5.183-6.12 1.412-7.937-5.178 6.12-1.417zM35.01 7.777l7.937 5.183-6.12 1.412-7.937-5.178 6.12-1.417zm-12.05 2.784 7.937 5.183-6.12 1.412-7.937-5.182 6.12-1.413zm-12.313 2.844 7.934 5.181L12.46 20l-7.933-5.18 6.12-1.415zm44.991 40.972H4.618V26.332h51.02v28.045z"/><path fill="#FFCF23" d="M25.313 33.042v15.01l12.008-7.507-12.008-7.503z"/></svg>