<svg xmlns="http://www.w3.org/2000/svg" width="50" height="52" fill="none"><path fill="#FFCF23" d="M32.076 40.317c1.54.008 3.024-.6 4.143-1.696a6.292 6.292 0 0 0 1.865-4.188v-.085l5.828-6.776a3.489 3.489 0 0 1 2.327-1.248 3.442 3.442 0 0 1 2.516.76 3.593 3.593 0 0 1 1.234 2.448c.075.955-.225 1.9-.833 2.623L37.52 45.962a8.188 8.188 0 0 1-2.776 2.138 7.93 7.93 0 0 1-3.381.756h-17.49L10.836 52 0 41.066 7.762 33.1a11.727 11.727 0 0 1 5.73-3.26 11.455 11.455 0 0 1 6.527.387l1.704.621h10.492c.894 0 1.75.375 2.373 1.04.623.664.959 1.561.93 2.486a3.565 3.565 0 0 1-1.086 2.357 3.333 3.333 0 0 1-2.356.93h-6.295c-.458 0-.881.254-1.11.664-.23.411-.23.917 0 1.328.229.41.652.664 1.11.664h6.295zm-6.352-25.405c.847.496 1.73.923 2.642 1.274.39.16.78.324 1.165.5.46.203.89.47 1.278.796a1.57 1.57 0 0 1 .46 1.999 1.492 1.492 0 0 1-.814.71 4.061 4.061 0 0 1-2.206.297 10.003 10.003 0 0 1-3.54-1.094 1.638 1.638 0 0 0-.765-.255c-.616 0-.805.643-.913.988-.2.664-.38 1.333-.554 2.002-.288 1.094-.108 1.503.882 2.002 1.088.511 2.243.855 3.427 1.02a2.7 2.7 0 0 1 .554.121c.04.205.055.414.047.622v1.311c-.021.34.098.67.329.912.23.242.549.37.876.352h1.899c.32.019.631-.108.854-.347.223-.238.334-.565.305-.895v-1.811c0-.404.092-.531.513-.654a6.65 6.65 0 0 0 3.463-2.299 6.504 6.504 0 0 0 1.303-5.225c-.381-1.978-1.594-3.678-3.309-4.636a27.64 27.64 0 0 0-2.975-1.402l-.39-.165a6.828 6.828 0 0 1-1.663-.988 1.314 1.314 0 0 1-.513-1.163 1.32 1.32 0 0 1 .826-1.009c.307-.126.634-.192.965-.196a7.69 7.69 0 0 1 3.935.807c1.262.632 1.54-.319 1.642-.722.169-.531.318-1.062.467-1.62l.174-.637a1.228 1.228 0 0 0-.044-.928 1.162 1.162 0 0 0-.674-.612 10.54 10.54 0 0 0-2.725-.823c-.846-.138-.846-.138-.846-1.02C31.799.271 31.66 0 29.91 0h-.944c-1.026.032-1.303.345-1.329 1.386v1.11c0 .78 0 .78-.749 1.062-2.73 1.025-4.197 2.958-4.36 5.74-.15 2.342.902 4.19 3.195 5.614z"/></svg>