<svg xmlns="http://www.w3.org/2000/svg" width="25" height="32" fill="none"><path fill="#FFCF23" d="M23.214 12.824H7.143V8.19c0-2.397 1.786-4.474 4.286-4.953 3.392-.48 6.428 1.757 6.428 4.793 0 .96.893 1.598 1.786 1.598s1.786-.639 1.786-1.598c0-4.634-4.465-8.469-9.822-7.99-4.643.48-8.036 4.155-8.036 8.31v4.474H1.786c-.893 0-1.786.64-1.786 1.598v15.98C0 31.201.893 32 1.786 32h21.428C24.286 32 25 31.201 25 30.402v-15.98c0-.959-.714-1.598-1.786-1.598zm-8.928 10.707v2.077c0 .959-.715 1.598-1.786 1.598-1.071 0-1.786-.64-1.786-1.598v-2.077c-1.071-.64-1.785-1.598-1.785-2.717 0-2.077 2.142-3.515 4.464-3.036 1.25.32 2.321 1.278 2.678 2.397.358 1.438-.535 2.717-1.785 3.356z"/></svg>