<svg xmlns="http://www.w3.org/2000/svg" width="67" height="60" fill="none"><path fill="#FFCF23" d="M61.093 23.891c-.36.004-.72.04-1.074.109L51.785 9.738a5.852 5.852 0 0 0 1.432-3.812 5.892 5.892 0 0 0-11.451-1.97H25.289A5.888 5.888 0 1 0 15.27 9.739L7.036 24a5.907 5.907 0 1 0 0 11.596l8.234 14.262a5.854 5.854 0 0 0-1.432 3.813 5.891 5.891 0 0 0 11.45 1.969h16.478a5.888 5.888 0 1 0 10.019-5.782l8.234-14.261a5.902 5.902 0 1 0 1.074-11.706zM47.31 47.764a5.897 5.897 0 0 0-5.544 3.938H25.29a5.809 5.809 0 0 0-6.618-3.83L10.437 33.61a5.788 5.788 0 0 0 0-7.623l8.234-14.263a5.809 5.809 0 0 0 6.618-3.829h16.477a5.809 5.809 0 0 0 6.618 3.83l8.234 14.262a5.788 5.788 0 0 0 0 7.623l-8.234 14.263a5.878 5.878 0 0 0-1.074-.109zm0-43.807a1.969 1.969 0 1 1 0 3.938 1.969 1.969 0 0 1 0-3.938zm-27.565 0a1.969 1.969 0 1 1 0 3.938 1.969 1.969 0 0 1 0-3.938zM3.994 29.799a1.968 1.968 0 1 1 3.935 0 1.968 1.968 0 0 1-3.935 0zM19.745 55.64a1.969 1.969 0 1 1 0-3.937 1.969 1.969 0 0 1 0 3.937zm27.565 0a1.969 1.969 0 1 1 0-3.937 1.969 1.969 0 0 1 0 3.937zm13.783-23.872a1.968 1.968 0 1 1 0-3.936 1.968 1.968 0 0 1 0 3.936z"/><path fill="#FFCF23" d="M33.53 12.077a17.722 17.722 0 1 0 17.72 17.721 17.741 17.741 0 0 0-17.72-17.72zm0 31.504a13.782 13.782 0 1 1 13.782-13.783 13.797 13.797 0 0 1-13.783 13.783z"/><path fill="#FFCF23" d="M33.53 25.204a4.562 4.562 0 0 1 3.674 1.838 1.968 1.968 0 0 0 2.76.393 1.97 1.97 0 0 0 .389-2.76 8.586 8.586 0 0 0-4.855-3.176v-.89a1.969 1.969 0 0 0-3.938 0v.895a8.523 8.523 0 0 0 0 16.588v.895a1.969 1.969 0 0 0 3.938 0v-.89a8.588 8.588 0 0 0 4.855-3.177 1.97 1.97 0 1 0-3.149-2.366 4.594 4.594 0 1 1-3.675-7.35z"/></svg>