<svg xmlns="http://www.w3.org/2000/svg" width="31" height="31" fill="none"><path fill="#fff" d="M29.967 16.533H24.8v-3.1c0-.325-.153-.631-.413-.826l-7.854-5.89V6.2H21.7a1.033 1.033 0 0 0 1.033-1.033V1.033A1.033 1.033 0 0 0 21.7 0h-6.2a1.033 1.033 0 0 0-1.033 1.033v5.684l-7.854 5.89c-.26.195-.413.501-.413.826v3.1H1.033A1.033 1.033 0 0 0 0 17.567v12.4A1.033 1.033 0 0 0 1.033 31h28.934A1.033 1.033 0 0 0 31 29.967v-12.4a1.033 1.033 0 0 0-1.033-1.034zm-9.3-12.4h-4.134V2.067h4.134v2.066zM2.067 18.6H6.2v10.333H2.067V18.6zM17.05 28.933h-3.1V24.8h3.1v4.133zm5.683 0h-3.616v-5.166a1.033 1.033 0 0 0-1.034-1.034h-5.166a1.033 1.033 0 0 0-1.034 1.034v5.166H8.267V13.95L15.5 8.525l7.233 5.425v14.983zm6.2 0H24.8V18.6h4.133v10.333z"/><path fill="#fff" d="M11.367 15.5a4.134 4.134 0 1 0 8.267 0 4.134 4.134 0 0 0-8.267 0zm6.2 0a2.066 2.066 0 1 1-4.133 0 2.066 2.066 0 0 1 4.133 0z"/></svg>