<svg xmlns="http://www.w3.org/2000/svg" width="67" height="65" fill="none"><mask id="a" width="67" height="65" x="0" y="0" fill="#000" maskUnits="userSpaceOnUse"><path fill="#fff" d="M0 0h67v65H0z"/><path fill-rule="evenodd" d="M63.043 52.648h-6.037a1.525 1.525 0 0 0-1.526 1.516l-.045 5.2-7.345-6.345a1.513 1.513 0 0 0-.996-.37H28.425V26.984h34.618v25.663zm-37.67-25.722a3.01 3.01 0 0 1 .877-2.12 2.992 2.992 0 0 1 2.115-.881h10.302V4.06H4.053v25.662h6.034a1.532 1.532 0 0 1 1.526 1.517l.045 5.2 7.346-6.345c.276-.24.63-.372.996-.372h5.373v-2.796zM63.1 23.925H41.718V4c0-.795-.315-1.558-.876-2.12A2.99 2.99 0 0 0 38.727 1H3.993c-.793 0-1.554.317-2.115.88A3.01 3.01 0 0 0 1 4.002v25.78c0 .796.316 1.558.877 2.121a2.99 2.99 0 0 0 2.115.88h4.581l.062 6.982a1.524 1.524 0 0 0 2.52 1.145l9.41-8.124h4.808v19.92a3.003 3.003 0 0 0 2.992 3.002h18.163l9.408 8.124a1.523 1.523 0 0 0 2.518-1.143l.067-6.981h4.582a2.988 2.988 0 0 0 2.113-.881c.56-.563.874-1.326.874-2.121v-25.78c0-.795-.315-1.558-.875-2.12a2.988 2.988 0 0 0-2.112-.882H63.1zM39 35.268c-.698 1.394-.072 3.301 1.86 5.672h-.001a35.435 35.435 0 0 0 4.873 4.692 35.33 35.33 0 0 0 4.873-4.691c1.93-2.372 2.556-4.28 1.858-5.673a3.084 3.084 0 0 0-2.614-1.696 3.253 3.253 0 0 0-2.845 1.508 1.525 1.525 0 0 1-2.543 0 3.252 3.252 0 0 0-2.71-1.51h-.135A3.074 3.074 0 0 0 39 35.266v.002zm5.786 13.523a1.522 1.522 0 0 0 1.9 0 42.332 42.332 0 0 0 6.285-5.914c2.764-3.39 3.51-6.414 2.222-8.983a6.159 6.159 0 0 0-4.263-3.26 6.142 6.142 0 0 0-5.194 1.327 6.183 6.183 0 0 0-4.25-1.445 6.139 6.139 0 0 0-5.207 3.378c-1.29 2.57-.541 5.593 2.22 8.983a42.308 42.308 0 0 0 6.288 5.914zM18.612 19.006l1.13-4.228h4.365l-1.13 4.228h-4.365zm11.143 0a1.532 1.532 0 0 1 0 3.06h-4.437l-.896 3.356a1.522 1.522 0 0 1-2.552.686 1.533 1.533 0 0 1-.395-1.477l.684-2.564h-4.364l-.897 3.355a1.521 1.521 0 0 1-2.552.686 1.532 1.532 0 0 1-.395-1.477l.686-2.564h-1.672a1.524 1.524 0 0 1-1.321-.765 1.534 1.534 0 0 1 0-1.53 1.525 1.525 0 0 1 1.32-.764h2.49l1.129-4.228h-3.616a1.524 1.524 0 0 1-1.321-.765 1.534 1.534 0 0 1 0-1.53 1.524 1.524 0 0 1 1.321-.765h4.435l.897-3.355a1.523 1.523 0 0 1 2.553-.687c.386.387.536.95.395 1.479l-.686 2.563h4.363l.896-3.355a1.522 1.522 0 0 1 2.552-.686c.386.386.536.95.395 1.478l-.684 2.563h1.672c.545 0 1.048.292 1.32.765a1.533 1.533 0 0 1 0 1.53 1.524 1.524 0 0 1-1.32.765h-2.489l-1.13 4.228 3.619-.002z" clip-rule="evenodd"/></mask><path fill="#FFCF23" fill-rule="evenodd" d="M63.043 52.648h-6.037a1.525 1.525 0 0 0-1.526 1.516l-.045 5.2-7.345-6.345a1.513 1.513 0 0 0-.996-.37H28.425V26.984h34.618v25.663zm-37.67-25.722a3.01 3.01 0 0 1 .877-2.12 2.992 2.992 0 0 1 2.115-.881h10.302V4.06H4.053v25.662h6.034a1.532 1.532 0 0 1 1.526 1.517l.045 5.2 7.346-6.345c.276-.24.63-.372.996-.372h5.373v-2.796zM63.1 23.925H41.718V4c0-.795-.315-1.558-.876-2.12A2.99 2.99 0 0 0 38.727 1H3.993c-.793 0-1.554.317-2.115.88A3.01 3.01 0 0 0 1 4.002v25.78c0 .796.316 1.558.877 2.121a2.99 2.99 0 0 0 2.115.88h4.581l.062 6.982a1.524 1.524 0 0 0 2.52 1.145l9.41-8.124h4.808v19.92a3.003 3.003 0 0 0 2.992 3.002h18.163l9.408 8.124a1.523 1.523 0 0 0 2.518-1.143l.067-6.981h4.582a2.988 2.988 0 0 0 2.113-.881c.56-.563.874-1.326.874-2.121v-25.78c0-.795-.315-1.558-.875-2.12a2.988 2.988 0 0 0-2.112-.882H63.1zM39 35.268c-.698 1.394-.072 3.301 1.86 5.672h-.001a35.435 35.435 0 0 0 4.873 4.692 35.33 35.33 0 0 0 4.873-4.691c1.93-2.372 2.556-4.28 1.858-5.673a3.084 3.084 0 0 0-2.614-1.696 3.253 3.253 0 0 0-2.845 1.508 1.525 1.525 0 0 1-2.543 0 3.252 3.252 0 0 0-2.71-1.51h-.135A3.074 3.074 0 0 0 39 35.266v.002zm5.786 13.523a1.522 1.522 0 0 0 1.9 0 42.332 42.332 0 0 0 6.285-5.914c2.764-3.39 3.51-6.414 2.222-8.983a6.159 6.159 0 0 0-4.263-3.26 6.142 6.142 0 0 0-5.194 1.327 6.183 6.183 0 0 0-4.25-1.445 6.139 6.139 0 0 0-5.207 3.378c-1.29 2.57-.541 5.593 2.22 8.983a42.308 42.308 0 0 0 6.288 5.914zM18.612 19.006l1.13-4.228h4.365l-1.13 4.228h-4.365zm11.143 0a1.532 1.532 0 0 1 0 3.06h-4.437l-.896 3.356a1.522 1.522 0 0 1-2.552.686 1.533 1.533 0 0 1-.395-1.477l.684-2.564h-4.364l-.897 3.355a1.521 1.521 0 0 1-2.552.686 1.532 1.532 0 0 1-.395-1.477l.686-2.564h-1.672a1.524 1.524 0 0 1-1.321-.765 1.534 1.534 0 0 1 0-1.53 1.525 1.525 0 0 1 1.32-.764h2.49l1.129-4.228h-3.616a1.524 1.524 0 0 1-1.321-.765 1.534 1.534 0 0 1 0-1.53 1.524 1.524 0 0 1 1.321-.765h4.435l.897-3.355a1.523 1.523 0 0 1 2.553-.687c.386.387.536.95.395 1.479l-.686 2.563h4.363l.896-3.355a1.522 1.522 0 0 1 2.552-.686c.386.386.536.95.395 1.478l-.684 2.563h1.672c.545 0 1.048.292 1.32.765a1.533 1.533 0 0 1 0 1.53 1.524 1.524 0 0 1-1.32.765h-2.489l-1.13 4.228 3.619-.002z" clip-rule="evenodd"/><path stroke="#FFCF23" stroke-width=".4" d="M63.043 52.648h-6.037a1.525 1.525 0 0 0-1.526 1.516l-.045 5.2-7.345-6.345a1.513 1.513 0 0 0-.996-.37H28.425V26.984h34.618v25.663zm-37.67-25.722a3.01 3.01 0 0 1 .877-2.12 2.992 2.992 0 0 1 2.115-.881h10.302V4.06H4.053v25.662h6.034a1.532 1.532 0 0 1 1.526 1.517l.045 5.2 7.346-6.345c.276-.24.63-.372.996-.372h5.373v-2.796zM63.1 23.925H41.718V4c0-.795-.315-1.558-.876-2.12A2.99 2.99 0 0 0 38.727 1H3.993c-.793 0-1.554.317-2.115.88A3.01 3.01 0 0 0 1 4.002v25.78c0 .796.316 1.558.877 2.121a2.99 2.99 0 0 0 2.115.88h4.581l.062 6.982a1.524 1.524 0 0 0 2.52 1.145l9.41-8.124h4.808v19.92a3.003 3.003 0 0 0 2.992 3.002h18.163l9.408 8.124a1.523 1.523 0 0 0 2.518-1.143l.067-6.981h4.582a2.988 2.988 0 0 0 2.113-.881c.56-.563.874-1.326.874-2.121v-25.78c0-.795-.315-1.558-.875-2.12a2.988 2.988 0 0 0-2.112-.882H63.1zM39 35.268c-.698 1.394-.072 3.301 1.86 5.672h-.001a35.435 35.435 0 0 0 4.873 4.692 35.33 35.33 0 0 0 4.873-4.691c1.93-2.372 2.556-4.28 1.858-5.673a3.084 3.084 0 0 0-2.614-1.696 3.253 3.253 0 0 0-2.845 1.508 1.525 1.525 0 0 1-2.543 0 3.252 3.252 0 0 0-2.71-1.51h-.135A3.074 3.074 0 0 0 39 35.266v.002zm5.786 13.523a1.522 1.522 0 0 0 1.9 0 42.332 42.332 0 0 0 6.285-5.914c2.764-3.39 3.51-6.414 2.222-8.983a6.159 6.159 0 0 0-4.263-3.26 6.142 6.142 0 0 0-5.194 1.327 6.183 6.183 0 0 0-4.25-1.445 6.139 6.139 0 0 0-5.207 3.378c-1.29 2.57-.541 5.593 2.22 8.983a42.308 42.308 0 0 0 6.288 5.914zM18.612 19.006l1.13-4.228h4.365l-1.13 4.228h-4.365zm11.143 0a1.532 1.532 0 0 1 0 3.06h-4.437l-.896 3.356a1.522 1.522 0 0 1-2.552.686 1.533 1.533 0 0 1-.395-1.477l.684-2.564h-4.364l-.897 3.355a1.521 1.521 0 0 1-2.552.686 1.532 1.532 0 0 1-.395-1.477l.686-2.564h-1.672a1.524 1.524 0 0 1-1.321-.765 1.534 1.534 0 0 1 0-1.53 1.525 1.525 0 0 1 1.32-.764h2.49l1.129-4.228h-3.616a1.524 1.524 0 0 1-1.321-.765 1.534 1.534 0 0 1 0-1.53 1.524 1.524 0 0 1 1.321-.765h4.435l.897-3.355a1.523 1.523 0 0 1 2.553-.687c.386.387.536.95.395 1.479l-.686 2.563h4.363l.896-3.355a1.522 1.522 0 0 1 2.552-.686c.386.386.536.95.395 1.478l-.684 2.563h1.672c.545 0 1.048.292 1.32.765a1.533 1.533 0 0 1 0 1.53 1.524 1.524 0 0 1-1.32.765h-2.489l-1.13 4.228 3.619-.002z" clip-rule="evenodd" mask="url(#a)"/></svg>