<svg xmlns="http://www.w3.org/2000/svg" width="16" height="27" fill="none"><path fill="#fff" d="M6.725 27h2.367a.994.994 0 0 0 .983-.998v-2.306l.491-.134C14.577 22.54 16 19.74 16 17.66c0-3.856-3.277-5.458-6.49-6.522-3.014-1.01-3.978-1.623-3.978-2.527 0-.81.925-1.622 2.996-1.622 2.28 0 3.71.658 4.319.944.131.06.269.093.406.093.38 0 .728-.226.892-.572l.937-2.014a.98.98 0 0 0 .032-.758.97.97 0 0 0-.504-.566c-1.127-.538-2.353-.884-3.736-1.05l-.577-.073V.99a.988.988 0 0 0-.983-.991H6.987a.992.992 0 0 0-.983.99v2.228l-.492.126C2.274 4.175.341 6.283.341 8.976c0 3.55 3.467 5.132 6.869 6.216 3.14 1.037 3.565 1.935 3.565 2.68 0 1.15-1.468 1.987-3.487 1.987-1.717 0-3.565-.445-4.942-1.19a.951.951 0 0 0-.78-.066 1.007 1.007 0 0 0-.576.538l-.905 2.041a.996.996 0 0 0 .413 1.27c1.147.671 2.85 1.17 4.66 1.376l.583.06v2.114c0 .553.44.998.984.998z"/></svg>