<svg xmlns="http://www.w3.org/2000/svg" width="13" height="20" fill="none"><path fill="#FFBB38" d="M5.11 20h1.798c.408 0 .747-.33.747-.739v-1.709l.373-.098c3.048-.759 4.129-2.832 4.129-4.373 0-2.857-2.49-4.044-4.93-4.832-2.291-.748-3.023-1.201-3.023-1.871 0-.6.702-1.202 2.276-1.202 1.733 0 2.818.488 3.281.7.1.044.204.068.309.068a.756.756 0 0 0 .677-.423l.712-1.492a.71.71 0 0 0 .025-.562.725.725 0 0 0-.383-.419c-.857-.398-1.788-.655-2.84-.778l-.437-.054V.734A.741.741 0 0 0 7.077 0H5.309a.744.744 0 0 0-.747.734v1.65l-.374.093C1.728 3.093.258 4.654.258 6.65c0 2.63 2.635 3.801 5.22 4.604 2.385.769 2.71 1.434 2.71 1.985 0 .852-1.116 1.473-2.65 1.473-1.305 0-2.71-.33-3.755-.882a.738.738 0 0 0-.593-.05.758.758 0 0 0-.438.4l-.687 1.51a.729.729 0 0 0 .313.941c.872.497 2.166.867 3.541 1.02l.443.044v1.566c0 .409.334.739.748.739z"/></svg>