<svg xmlns="http://www.w3.org/2000/svg" width="35" height="50" fill="none"><path fill="#fff" d="M32.5 20.038H10v-7.24c0-3.746 2.5-6.992 6-7.74 4.75-.75 9 2.746 9 7.49 0 1.498 1.25 2.496 2.5 2.496s2.5-.998 2.5-2.497C30 5.307 23.75-.686 16.25.063 9.75.813 5 6.555 5 13.047v6.991H2.5c-1.25 0-2.5.999-2.5 2.497v24.968C0 48.752 1.25 50 2.5 50h30c1.5 0 2.5-1.248 2.5-2.497V22.535c0-1.498-1-2.497-2.5-2.497zM20 36.767v3.246c0 1.498-1 2.497-2.5 2.497s-2.5-1-2.5-2.497v-3.246c-1.5-.999-2.5-2.497-2.5-4.245 0-3.246 3-5.493 6.25-4.744 1.75.5 3.25 1.998 3.75 3.745.5 2.248-.75 4.245-2.5 5.244z"/></svg>