<svg xmlns="http://www.w3.org/2000/svg" width="63" height="63" fill="none"><path fill="#FFCF23" stroke="#FFCF23" stroke-width=".2" d="M30.075 30.076a5.405 5.405 0 0 0 .1 10.808h2.652a2.551 2.551 0 1 1 0 5.104h-2.652a2.552 2.552 0 0 1-2.552-2.552 1.427 1.427 0 0 0-2.853 0 5.405 5.405 0 0 0 5.305 5.404v1.226a1.427 1.427 0 0 0 2.852 0V48.84a5.405 5.405 0 0 0-.1-10.808h-2.652a2.551 2.551 0 1 1 0-5.105h2.652a2.551 2.551 0 0 1 2.552 2.553 1.427 1.427 0 0 0 2.852 0 5.405 5.405 0 0 0-5.304-5.404v-1.227a1.427 1.427 0 0 0-2.852 0v1.227z"/><path fill="#FFCF23" stroke="#FFCF23" stroke-width=".2" d="M.9 20.892a4.082 4.082 0 0 0 3.143 3.97l2.161 4.323v20.544l-2.107 4.215h-.18c-.799 0-1.567.318-2.133.883A3.025 3.025 0 0 0 .9 56.96v2.122c0 .8.319 1.567.883 2.134a3.024 3.024 0 0 0 2.135.883h55.165c.8 0 1.568-.318 2.134-.883a3.025 3.025 0 0 0 .883-2.134V56.96c0-.8-.318-1.568-.883-2.134a3.024 3.024 0 0 0-2.134-.883h-.18l-2.107-4.215V29.185l2.162-4.322a4.082 4.082 0 0 0 3.142-3.971V18.24a4.078 4.078 0 0 0-2.254-3.648L33.325 1.332a4.074 4.074 0 0 0-3.649 0L3.155 14.591A4.078 4.078 0 0 0 .9 18.24v2.653zm58.3 38.306-.002.002a.161.161 0 0 1-.115.048H3.918a.161.161 0 0 1-.116-.048l-.002-.002a.161.161 0 0 1-.048-.116v-2.121c0-.044.018-.086.048-.116l.002-.002a.161.161 0 0 1 .116-.048h55.165a.16.16 0 0 1 .115.048l.002.002c.03.03.048.072.048.116v2.121a.161.161 0 0 1-.048.116zM4.978 22.116a1.226 1.226 0 0 1-1.226-1.197v-2.681c0-.465.262-.889.678-1.096l26.522-13.26a1.221 1.221 0 0 1 1.095 0l26.522 13.26c.416.207.678.631.678 1.096v2.652c0 .677-.55 1.226-1.226 1.226H4.978zm14.687 27.612V29.184l2.108-4.215h19.455l2.107 4.215v20.544l-2.107 4.215H21.772l-2.107-4.215zM8.512 51.491h8.846l1.226 2.452H7.286l1.226-2.452zm37.13 0h8.846l1.226 2.452H44.416l1.226-2.452zm-28.83-21.218v18.366H9.057V30.273h7.757zm37.132 0v18.366h-7.757V30.273h7.757zM8.512 27.421l-1.226-2.452h11.298l-1.226 2.452H8.512zm37.13 0-1.225-2.452h11.298l-1.227 2.452h-8.845z"/></svg>