<svg xmlns="http://www.w3.org/2000/svg" width="26" height="32" fill="none"><path fill="#FFCF23" d="m25.401 14.63-.01-9.297c0-.448-.28-.849-.696-1.002L13.067.064a1.053 1.053 0 0 0-.723 0L.716 4.331a1.066 1.066 0 0 0-.695 1.002L.01 14.63c-.07 7.614-.124 13.114 12.36 17.315a1.057 1.057 0 0 0 .669.002c12.482-4.201 12.433-9.7 12.361-17.317zM12.706 6.4c2.332 0 4.228 1.914 4.228 4.267 0 2.353-1.896 4.266-4.228 4.266s-4.229-1.913-4.229-4.266c0-2.353 1.897-4.267 4.229-4.267zm5.285 17.067H7.421A1.062 1.062 0 0 1 6.362 22.4c0-2.942 2.372-5.333 5.286-5.333h2.114c2.915 0 5.285 2.391 5.285 5.333 0 .589-.473 1.067-1.057 1.067z"/></svg>