<svg xmlns="http://www.w3.org/2000/svg" width="61" height="55" fill="none"><path fill="#FFCF23" d="M23.206 31.727h-1.357a2.753 2.753 0 0 0-2.782 2.785v16.713a2.753 2.753 0 0 0 2.782 2.785h1.357a2.753 2.753 0 0 0 2.782-2.785V34.512c-.068-1.494-1.29-2.785-2.782-2.785zm-15.538 5.57H6.31a2.753 2.753 0 0 0-2.782 2.786v11.142A2.753 2.753 0 0 0 6.31 54.01h1.358a2.753 2.753 0 0 0 2.782-2.785V40.083c0-1.563-1.29-2.785-2.782-2.785zm46.615-13.926h-1.357a2.753 2.753 0 0 0-2.782 2.785v25.069a2.753 2.753 0 0 0 2.782 2.785h1.357a2.753 2.753 0 0 0 2.782-2.785V26.156c0-1.494-1.222-2.785-2.782-2.785zM38.744 42.868h-1.425a2.753 2.753 0 0 0-2.782 2.786v5.57a2.753 2.753 0 0 0 2.782 2.786h1.357a2.753 2.753 0 0 0 2.782-2.786v-5.57c0-1.495-1.221-2.786-2.714-2.786zM60.661.408A1.38 1.38 0 0 0 59.643 0h-16.42c-.747 0-1.358.611-1.358 1.359v2.038c0 .747.61 1.359 1.357 1.359h7.464c-3.664 4.96-13.163 17.528-14.316 17.528-1.425 0-14.928-10.599-16.218-10.599C18.863 11.685 0 31.251 0 31.251S18.253 20.11 19.542 20.11c1.289 0 16.217 11.618 17.573 11.618 1.086 0 13.91-16.441 19.135-23.167v9.24c0 .747.61 1.358 1.357 1.358h2.036c.746 0 1.357-.611 1.357-1.359V1.358c0-.34-.136-.679-.34-.95z"/></svg>