<svg xmlns="http://www.w3.org/2000/svg" width="62" height="60" fill="none"><path fill="#FFCF23" d="M4.963 0C2.25 0 0 2.243 0 4.961v50.064C0 57.743 2.25 60 4.963 60h37.333c2.714 0 4.952-2.257 4.952-4.975V43.522l9.72-9.728 2.384-2.386c2.57-2.574 2.671-6.78.12-9.336-1.276-1.278-2.97-1.895-4.66-1.867-1.69.028-3.39.7-4.675 1.987l-2.367 2.375-.521.522V4.962c0-2.719-2.24-4.961-4.954-4.961L4.963 0zm0 3.613h37.333c.778 0 1.345.569 1.345 1.348v23.74l-9.796 9.81c-.002 0-.002.002-.004.003l-.006.007-3.322 3.328a1.809 1.809 0 0 0-.504.988l-1.279 7.946a1.808 1.808 0 0 0 2.064 2.068l7.933-1.281c.374-.06.719-.237.987-.505l3.928-3.934v7.894c0 .779-.568 1.361-1.346 1.361H4.964c-.779 0-1.357-.582-1.357-1.361V4.96c0-.78.578-1.348 1.357-1.348zm5.01 6.323a1.801 1.801 0 0 0-1.271 3.072c.337.337.794.527 1.27.527h12.263a1.802 1.802 0 0 0 1.796-1.8 1.808 1.808 0 0 0-1.796-1.799H9.972zm0 9.415a1.801 1.801 0 0 0-1.8 1.799 1.809 1.809 0 0 0 1.8 1.814h26.944a1.803 1.803 0 0 0 1.81-1.814 1.808 1.808 0 0 0-1.81-1.8H9.972zm44.874 4.431a2.823 2.823 0 0 1 2.067.836c1.133 1.135 1.13 2.977-.12 4.228l-1.102 1.104-4.1-4.107 1.102-1.105c.625-.625 1.395-.94 2.153-.956zm-5.813 4.623 4.1 4.107-8.933 8.948a1.78 1.78 0 0 0-.056.057l-2.381 2.385-4.1-4.107 11.37-11.39zm-39.062.36a1.801 1.801 0 0 0-1.8 1.813 1.808 1.808 0 0 0 1.8 1.8h26.945a1.803 1.803 0 0 0 1.81-1.8 1.808 1.808 0 0 0-1.81-1.813H9.972zm25.141 13.584 4.1 4.108-1.641 1.648-4.89.787.786-4.898 1.645-1.645z"/></svg>