<svg xmlns="http://www.w3.org/2000/svg" width="15" height="18" fill="none"><path fill="#FFBB38" stroke="#FFBB38" stroke-width=".8" d="M12.27 15.401a.91.91 0 0 1-.582.199H3.374a.91.91 0 0 1-.582-.199.529.529 0 0 1-.204-.401V3c0-.135.063-.281.205-.401a.91.91 0 0 1 .582-.2h8.313a.91.91 0 0 1 .582.2c.142.12.205.266.205.4V15a.529.529 0 0 1-.205.401zM11.688.6H3.374c-.716 0-1.413.239-1.937.68C.912 1.722.6 2.34.6 3v12c0 .66.312 1.278.838 1.72.524.441 1.221.68 1.937.68h8.313c.715 0 1.413-.239 1.936-.68.526-.442.838-1.06.838-1.72V3c0-.66-.312-1.278-.838-1.72-.523-.441-1.22-.68-1.937-.68z"/><path fill="#FFBB38" stroke="#FFBB38" stroke-width=".8" d="M7.531 15.9c.81 0 1.588-.565 1.588-1.4s-.778-1.4-1.588-1.4-1.587.565-1.587 1.4.778 1.4 1.587 1.4zM6.047 2.1h2.969c.323 0 .652.145.844.424L6.047 2.1zm0 0a1.02 1.02 0 0 0-.844.424l.844-.424zm2.969 1.8h-2.97a1.02 1.02 0 0 1-.843-.424l3.813.424zm0 0c.323 0 .652-.145.844-.424m-.844.424.844-.424m0 0a.83.83 0 0 0 0-.952v.952zm-4.657-.952a.83.83 0 0 0 0 .952v-.952z"/></svg>