<svg xmlns="http://www.w3.org/2000/svg" width="64" height="60" fill="none"><path fill="#FFCF23" d="M59.717 29.843v-.005c0-7.893-3.13-15.464-8.703-21.056A29.867 29.867 0 0 0 29.739.002a29.868 29.868 0 0 0-21.05 8.794 29.824 29.824 0 0 0 .056 42.14 29.662 29.662 0 0 0 20.994 8.738l.12.002h32.205a1.936 1.936 0 0 0 1.913-2.23l-4.26-27.603zM28.35 55.008c-.99-.959-2.145-2.85-3.207-6.049a48.037 48.037 0 0 1-1.822-7.929h7.186L28.35 55.008zm3.907-25.312-1.152 7.466h-8.249a80.312 80.312 0 0 1-.328-7.325c0-2.513.112-4.97.328-7.32h14a79.24 79.24 0 0 1 .308 5.54H34.17a1.936 1.936 0 0 0-1.913 1.639zm-28.387.141a25.873 25.873 0 0 1 1.053-7.32h14.048a84.188 84.188 0 0 0-.314 7.32c0 2.504.108 4.96.315 7.325H4.925a25.867 25.867 0 0 1-1.054-7.325zm25.99-25.97c1.125 0 3.035 1.794 4.712 6.848a48.075 48.075 0 0 1 1.822 7.933H23.322a48.03 48.03 0 0 1 1.822-7.933c1.678-5.054 3.589-6.848 4.715-6.848zm11.178 24.19a83.254 83.254 0 0 0-.295-5.54h14.051a25.67 25.67 0 0 1 .99 5.54H41.038zm12.27-9.41H40.302a52.818 52.818 0 0 0-2.056-9.15 26.124 26.124 0 0 0-2.113-4.863 26.101 26.101 0 0 1 17.174 14.013zM23.583 4.635a26.138 26.138 0 0 0-2.113 4.863 52.825 52.825 0 0 0-2.058 9.15H6.41A26.08 26.08 0 0 1 23.584 4.634zM6.411 41.03h13.001a52.81 52.81 0 0 0 2.058 9.146 26.132 26.132 0 0 0 2.113 4.863 26.098 26.098 0 0 1-17.171-14.01zm25.734 14.777 3.686-23.882h20.29l3.686 23.882H32.145zM53.459 37.06v5.921a5.39 5.39 0 0 1-5.381 5.381h-4.203a5.393 5.393 0 0 1-5.385-5.38V37.06a1.934 1.934 0 0 1 2.903-1.675c.6.345.968.984.968 1.675v5.921a1.513 1.513 0 0 0 1.514 1.513h4.202a1.514 1.514 0 0 0 1.51-1.513V37.06a1.934 1.934 0 0 1 2.904-1.675c.599.345.968.984.968 1.675z"/></svg>